<?xml version="1.0" standalone="no"?><!DOCTYPE svg PUBLIC "-//W3C//DTD SVG 1.1//EN" "http://www.w3.org/Graphics/SVG/1.1/DTD/svg11.dtd"><svg t="1539759630584" class="icon" style="" viewBox="0 0 1024 1024" version="1.1" xmlns="http://www.w3.org/2000/svg" p-id="2949" xmlns:xlink="http://www.w3.org/1999/xlink" width="32" height="32"><defs><style type="text/css"></style></defs><path d="M801.4 117c0-28.8-23.3-52.1-52.1-52.1H153.2c-32.5 0-59 26.3-59 59v718.9c0 28.8 23.3 52.2 52.2 52.2h357.3c-0.2-0.3-0.4-0.7-0.6-1h160.3c75.7 0 137-61.4 137-137V401.1h0.8V117zM545 172.5l30.7 138.3 30.7-138.3h30.7l30.7 138.3 30.7-138.3h30.7L698.6 357h-46.1l-32.3-139.9L591 357h-46.1l-30.7-184.5H545z m-368.9 0h46.1l61.5 123v-123h46.1V357h-46.1l-63.1-126.1 1.6 126.1h-46.1V172.5z m169 553.4H177.4v-46.1h167.7v46.1z m0-123H177.4v-46.1h167.7v46.1z m0-122.9H177.4v-46.2h167.7V480z m15.4-307.5h123v30.7h-92.2v46.1h92.2V280h-92.2v46.2h92.2v30.7h-123V172.5z" fill="#157FFF" p-id="2950"></path><path d="M662.7 409.2c-152 0-275.2 123.2-275.2 275.2s123.2 275.2 275.2 275.2 275.2-123.2 275.2-275.2c-0.1-152-123.3-275.2-275.2-275.2z m-30.4 471.3c-87.3-13.7-155.7-84.7-165.7-173.6-0.5-4.3 2.8-13.4 18.1-13.4 15.4 0 18.8 7.1 20.2 16.3 10.9 68.4 64.6 122.3 132.6 133.2 9.1 1.5 15.9 9.3 15.9 18.8 0.1 11.4-9.9 20.4-21.1 18.7z m-3.8-98c-29.5-10.4-52.8-33.9-63.2-63.5-4.3-12.2 4.8-25.1 17.7-25.1 7.8 0 15.1 4.7 17.6 12.1 6.6 19.2 21.7 34.5 41 41.1 7.3 2.6 11.9 9.9 11.9 17.7 0 12.9-12.9 22-25 17.7z m13-160.7c-19.2 6.6-34.4 21.9-41 41.1-2.5 7.3-9.8 12-17.6 12.1-12.9 0-22-12.9-17.7-25.1 10.4-29.7 33.7-53.1 63.2-63.5 12.2-4.3 25 4.8 25 17.8 0.1 7.7-4.5 15-11.9 17.6z m-4-96.1c-68 10.9-121.7 64.8-132.6 133.2-1.4 9.2-3.3 18.2-20.4 18.2-16.9 0-18.6-9.5-18.2-13.2 9.2-89.8 78-161.9 166-175.6 11.2-1.7 21.1 7.3 21.1 18.6 0.1 9.5-6.7 17.3-15.9 18.8z m55.9-37.5c84.4 13.2 151 79.9 164.5 164.4 1.2 7.3 0 21.8-16.2 24.4-16.3 2.6-19.4-9-20.8-18.2-10.9-68.4-64.6-122.3-132.7-133.3-9.1-1.5-15.9-9.3-15.9-18.8-0.1-11.1 9.9-20.2 21.1-18.5zM742.8 675h-1.7c-7.4-0.1-13.6-5.1-15.9-12.1-6.6-19.2-21.7-34.5-41-41.1-7.3-2.6-11.9-9.9-11.9-17.7 0-13 12.8-22.1 25-17.8 29.5 10.4 52.8 33.9 63.2 63.5 4.3 12.3-4.8 25.2-17.7 25.2z m17.7 43.9c-10.4 29.7-33.7 53.1-63.2 63.5-12.1 4.3-25-4.8-25-17.8 0-7.8 4.6-15.1 11.9-17.7 19.2-6.6 34.4-21.9 41-41.1 2.5-7.4 9.8-12.1 17.6-12.1 12.9 0.1 22 13 17.7 25.2z m98.5-10c-10.8 87.9-78.8 158.1-165.5 171.6-11.2 1.7-21.1-7.3-21.1-18.6 0-9.5 6.8-17.3 15.9-18.8 68-10.9 121.7-64.8 132.6-133.2 1.2-7.5 3.2-15.8 18.5-16 15-0.3 20.2 10 19.6 15z" fill="#63BBFC" p-id="2951"></path></svg>