<?xml version="1.0" standalone="no"?><!DOCTYPE svg PUBLIC "-//W3C//DTD SVG 1.1//EN" "http://www.w3.org/Graphics/SVG/1.1/DTD/svg11.dtd"><svg t="1534387217063" class="icon" style="" viewBox="0 0 1024 1024" version="1.1" xmlns="http://www.w3.org/2000/svg" p-id="4111" xmlns:xlink="http://www.w3.org/1999/xlink" width="32" height="32"><defs><style type="text/css"></style></defs><path d="M791.272727 849.454545c0 32.069818-26.088727 58.181818-58.181818 58.181819h-418.909091a58.251636 58.251636 0 0 1-58.181818-58.181819V232.727273h535.272727v616.727272z m-418.909091-721.454545a11.636364 11.636364 0 0 1 11.636364-11.636364h279.272727a11.636364 11.636364 0 0 1 11.636364 11.636364V162.909091H372.363636V128zM965.818182 162.909091H744.727273V128C744.727273 83.083636 708.189091 46.545455 663.272727 46.545455h-279.272727C339.083636 46.545455 302.545455 83.083636 302.545455 128V162.909091H81.454545a34.909091 34.909091 0 1 0 0 69.818182H186.181818v616.727272c0 70.586182 57.437091 128 128 128h418.909091c70.562909 0 128-57.413818 128-128V232.727273h104.727273a34.909091 34.909091 0 1 0 0-69.818182z m-442.181818 640A34.909091 34.909091 0 0 0 558.545455 768V395.636364a34.909091 34.909091 0 1 0-69.818182 0v372.363636a34.909091 34.909091 0 0 0 34.909091 34.909091m-162.909091 0A34.909091 34.909091 0 0 0 395.636364 768V395.636364a34.909091 34.909091 0 1 0-69.818182 0v372.363636a34.909091 34.909091 0 0 0 34.909091 34.909091m325.818182 0A34.909091 34.909091 0 0 0 721.454545 768V395.636364a34.909091 34.909091 0 1 0-69.818181 0v372.363636a34.909091 34.909091 0 0 0 34.909091 34.909091" fill="#ffffff" p-id="4112"></path></svg>