<?xml version="1.0" standalone="no"?><!DOCTYPE svg PUBLIC "-//W3C//DTD SVG 1.1//EN" "http://www.w3.org/Graphics/SVG/1.1/DTD/svg11.dtd"><svg t="1533208482058" class="icon" style="" viewBox="0 0 1024 1024" version="1.1" xmlns="http://www.w3.org/2000/svg" p-id="916" xmlns:xlink="http://www.w3.org/1999/xlink" width="32" height="32"><defs><style type="text/css"></style></defs><path d="M512 5.632C233.581714 5.632 5.595429 233.618286 5.595429 512S233.581714 1018.404571 512 1018.404571c278.418286 0 506.368-227.986286 506.368-506.404571C1020.379429 233.618286 792.393143 5.632 512 5.632z m0 972.397714c-256.219429 0-464.018286-207.798857-464.018286-464.018285S255.780571 50.029714 512 50.029714 976.054857 257.828571 976.054857 514.048C976.018286 770.267429 768.219429 978.029714 512 978.029714zM312.32 431.177143a33.28 33.28 0 0 0 33.28-33.243429V364.617143a33.28 33.28 0 1 0-66.56 0v33.243428c0 18.395429 14.921143 33.316571 33.28 33.316572z m133.12 149.76a33.28 33.28 0 0 0 33.316571-33.243429v-33.353143a33.353143 33.353143 0 0 0-66.596571 0v33.28a33.316571 33.316571 0 0 0 33.28 33.316572z m133.083429 0a33.28 33.28 0 0 0 33.28-33.28v-33.316572a33.28 33.28 0 0 0-66.56 0v33.28a33.353143 33.353143 0 0 0 33.206857 33.316572h0.073143z m0-149.76a33.28 33.28 0 0 0 33.28-33.28v-33.28a33.243429 33.243429 0 1 0-66.56 0v33.243428a33.28 33.28 0 0 0 33.28 33.316572z m-133.083429 0a33.28 33.28 0 0 0 33.316571-33.243429V364.617143a33.28 33.28 0 0 0-66.596571 0v33.243428a33.353143 33.353143 0 0 0 33.28 33.316572z m-99.803429 116.443428v-33.28a33.28 33.28 0 0 0-66.56 0v33.28a33.28 33.28 0 1 0 66.56 0zM711.68 331.337143a33.243429 33.243429 0 0 0-33.243429 33.243428v33.316572a33.243429 33.243429 0 1 0 66.486858 0v-33.28a33.28 33.28 0 0 0-33.243429-33.28z m0 149.723428a33.28 33.28 0 0 0-33.243429 33.28v33.28c0 18.432 14.848 33.243429 33.243429 33.243429a33.206857 33.206857 0 0 0 33.243429-33.243429v-33.28a33.28 33.28 0 0 0-33.243429-33.28z m-33.28 166.4H345.636571a33.28 33.28 0 1 0 0 66.523429h332.8a33.28 33.28 0 0 0-0.036571-66.523429z" p-id="917" fill="#ffffff"></path></svg>