<?xml version="1.0" standalone="no"?><!DOCTYPE svg PUBLIC "-//W3C//DTD SVG 1.1//EN" "http://www.w3.org/Graphics/SVG/1.1/DTD/svg11.dtd"><svg t="1533715371420" class="icon" style="" viewBox="0 0 1024 1024" version="1.1" xmlns="http://www.w3.org/2000/svg" p-id="1812" xmlns:xlink="http://www.w3.org/1999/xlink" width="32" height="32"><defs><style type="text/css"></style></defs><path d="M512 1018.434783c23.195826 0 46.191304-1.558261 68.897391-4.652522a16.695652 16.695652 0 0 0-4.496695-33.079652c-21.214609 2.893913-42.718609 4.34087-64.400696 4.340869a16.695652 16.695652 0 1 0 0 33.391305z m222.831304-51.533913c20.702609-10.150957 40.670609-21.726609 59.770435-34.593392a16.695652 16.695652 0 0 0-18.654609-27.692521c-17.853217 12.02087-36.507826 22.817391-55.83026 32.300521a16.695652 16.695652 0 1 0 14.692173 29.985392z m177.285566-144.406261a507.347478 507.347478 0 0 0 38.578087-57.299479 16.695652 16.695652 0 1 0-28.91687-16.717913 473.956174 473.956174 0 0 1-36.018087 53.515131 16.695652 16.695652 0 1 0 26.35687 20.48z m96.256-209.541566c4.541217-22.483478 7.568696-45.345391 9.037913-68.452173a16.695652 16.695652 0 0 0-33.324522-2.114783 473.266087 473.266087 0 0 1-8.459131 63.955478 16.695652 16.695652 0 0 0 32.723479 6.611478z m-6.589218-230.177391a502.672696 502.672696 0 0 0-22.127304-65.446956 16.695652 16.695652 0 0 0-30.809044 12.844521c8.258783 19.834435 15.159652 40.247652 20.658087 61.083826a16.695652 16.695652 0 0 0 32.278261-8.481391z m-107.542261-203.01913c-15.137391-17.363478-31.410087-33.702957-48.751304-48.88487a16.695652 16.695652 0 1 0-21.993739 25.110261A476.070957 476.070957 0 0 1 869.064348 201.683478a16.695652 16.695652 0 0 0 25.199304-21.926956z m-184.765217-134.233044a502.717217 502.717217 0 0 0-65.313391-22.528 16.695652 16.695652 0 0 0-8.68174 32.233739c20.813913 5.609739 41.182609 12.644174 60.950261 21.036522a16.695652 16.695652 0 1 0 13.04487-30.764522zM481.636174 6.455652a506.88 506.88 0 0 0-68.518957 8.770783 16.695652 16.695652 0 1 0 6.477913 32.745739 473.488696 473.488696 0 0 1 64.022261-8.169739 16.695652 16.695652 0 0 0-2.003478-33.346783z m-219.492174 64.957218c-20.057043 11.375304-39.290435 24.130783-57.58887 38.132869a16.695652 16.695652 0 1 0 20.279653 26.512696 473.800348 473.800348 0 0 1 53.78226-35.617392 16.695652 16.695652 0 0 0-16.473043-29.028173z m-168.292174 154.802087a506.078609 506.078609 0 0 0-35.060869 59.525565 16.695652 16.695652 0 0 0 29.874086 14.914782c9.638957-19.233391 20.569043-37.821217 32.723479-55.56313a16.695652 16.695652 0 0 0-27.536696-18.877217z m-83.411478 215.262608a510.575304 510.575304 0 0 0-4.875131 68.85287 16.695652 16.695652 0 1 0 33.391305 0.111304c0.066783-21.682087 1.602783-43.163826 4.563478-64.356174a16.695652 16.695652 0 0 0-33.079652-4.608z m20.48 229.197913c7.234783 21.904696 15.938783 43.27513 26.089739 63.955479a16.695652 16.695652 0 0 0 29.985391-14.692174 469.860174 469.860174 0 0 1-24.353391-59.725913 16.695652 16.695652 0 0 0-31.721739 10.462608z m119.830261 196.251826c16.13913 16.428522 33.391304 31.744 51.600695 45.857392a16.695652 16.695652 0 0 0 20.435479-26.423653 475.848348 475.848348 0 0 1-48.239305-42.852173 16.695652 16.695652 0 1 0-23.81913 23.418434z m192.422956 122.679653a16.695652 16.695652 0 0 1 11.130435-31.47687c20.257391 7.145739 41.004522 12.911304 62.130087 17.252174a16.695652 16.695652 0 1 1-6.700522 32.723478 502.739478 502.739478 0 0 1-66.56-18.476522z m162.905044-676.352c37.042087 0 66.56 9.839304 89.132521 30.675478 21.414957 19.678609 32.411826 46.881391 32.411827 81.608348 0 26.045217-7.524174 48.617739-21.99374 67.717565-5.787826 6.945391-21.414957 21.993739-46.881391 44.566261-12.733217 10.99687-21.414957 21.414957-27.202783 31.833043-7.524174 12.733217-10.99687 26.624-10.996869 42.251131v13.312h-46.302609v-13.312c0-19.099826 3.472696-35.884522 10.418087-50.354087 8.102957-17.363478 27.202783-39.357217 58.457044-67.138783 9.260522-9.260522 16.205913-16.205913 19.678608-20.836174 11.575652-14.469565 17.363478-29.517913 17.363479-45.723826 0-23.151304-6.945391-41.093565-19.678609-53.826783-13.312-13.890783-32.411826-20.257391-56.720696-20.257391-28.93913 0-50.354087 9.260522-64.244869 28.360348-12.733217 16.205913-19.099826 38.199652-19.099826 66.56h-45.723826c0-40.514783 10.99687-72.926609 34.148173-97.235478 23.151304-25.466435 55.56313-38.199652 97.235479-38.199652z m-8.681739 352.478608c9.839304 0 18.521043 2.893913 25.466434 9.839305 6.366609 6.366609 9.839304 14.469565 9.839305 24.308869 0 10.418087-3.472696 18.521043-10.418087 24.887652a35.483826 35.483826 0 0 1-24.887652 9.839305c-9.839304 0-17.942261-3.472696-24.887653-9.839305-6.945391-6.945391-9.839304-15.048348-9.839304-24.887652 0-9.839304 2.893913-17.942261 9.839304-24.308869 6.945391-6.945391 15.048348-9.839304 24.887653-9.839305z" p-id="1813" fill="#2c2c2c"></path></svg>