<?xml version="1.0" standalone="no"?><!DOCTYPE svg PUBLIC "-//W3C//DTD SVG 1.1//EN" "http://www.w3.org/Graphics/SVG/1.1/DTD/svg11.dtd"><svg t="1540710823420" class="icon" style="" viewBox="0 0 1024 1024" version="1.1" xmlns="http://www.w3.org/2000/svg" p-id="3599" xmlns:xlink="http://www.w3.org/1999/xlink" width="32" height="32"><defs><style type="text/css"></style></defs><path d="M776.3 816.2c23-21.3 43.3-45.4 60.6-71.7h-95.1c-13.8 0-25-11.2-25-25s11.2-25 25-25h122.8c22.6-49 35.2-103.6 35.2-161.1C899.8 320 726.2 147 512.1 147S124.4 320 124.4 533.4c0 36 4.9 70.8 14.2 103.8h103.2c13.8 0 25 11.2 25 25s-11.2 25-25 25h-85.4C215.8 824.1 352.7 919.8 512 919.8c72.1 0 139.6-19.6 197.4-53.7h-140c-13.8 0-25-11.2-25-25s11.2-25 25-25h206.9z" fill="#FFCB00" p-id="3600"></path><path d="M125.9 569.2c-1.1-11.8-1.6-23.7-1.6-35.8C124.3 320 297.9 147 512 147s387.7 173 387.7 386.4c0 12.1-0.6 24-1.6 35.8C880 372.6 714 218.6 512 218.6s-368 154-386.1 350.6z" fill="#FF9A00" p-id="3601"></path><path d="M224.8 104.2c-55.5 0-100.5 44.8-100.5 100.2s45 100.2 100.5 100.2 100.5-44.8 100.5-100.2-45-100.2-100.5-100.2z m0 150.2c-27.8 0-50.3-22.4-50.3-50.1s22.5-50.1 50.3-50.1c27.8 0 50.3 22.4 50.3 50.1s-22.6 50.1-50.3 50.1zM799.2 104.2c-55.5 0-100.5 44.8-100.5 100.2s45 100.2 100.5 100.2 100.5-44.8 100.5-100.2-45-100.2-100.5-100.2z m0 150.2c-27.8 0-50.3-22.4-50.3-50.1s22.5-50.1 50.3-50.1c27.8 0 50.3 22.4 50.3 50.1s-22.5 50.1-50.3 50.1z" fill="#FF9A00" p-id="3602"></path><path d="M460.8 575.8c22.9-2.2 36.8-9 41.7-20.5 4.9-11.5 7.7-21.1 8.6-28.8 1.4 22.9 9.2 37.2 23.4 42.9 14.1 5.7 21.3 6.4 21.4 2.1-1.8 43.9-18.5 64.7-49.9 62.2-31.6-2.3-46.6-21.7-45.2-57.9z" fill="#E96961" p-id="3603"></path><path d="M509.6 649.2c-37.8 0-61.9-46.5-61.9-78.5h9l9.2-11.9 7.3 5.7v6.3c0 20.5 16.7 53.1 36.4 53.1 19.8 0 33.2-32.5 35.3-56l25.4 2.3c-2.8 31.7-21.3 79-60.7 79z" fill="#6D3D2D" p-id="3604"></path><path d="M549.9 579.3h-1c-11.9-0.2-26.2-4-37.5-17.4-8.3 11.3-21.5 17.4-38.9 17.4-40.1 0-49.4-25.3-50.1-46.5-0.3-7 5.2-12.9 12.3-13.2 7.1-0.4 12.9 5.2 13.2 12.3 0.6 16.8 6.4 22 24.7 22 14 0 23.3-4.6 23.3-27.3 0-6.4 4.8-11.9 11.2-12.7 6.4-0.8 12.4 3.4 13.9 9.6 6.5 26.5 18.7 30.2 28.5 30.3 8.8 0.2 18.5-1.6 19.4-24.8 0.2-7 6-12.6 13.2-12.3 7 0.3 12.5 6.2 12.3 13.2-1.8 44.2-31 49.4-44.5 49.4z" fill="#6D3D2D" p-id="3605"></path><path d="M247 477.5a60 58.6 0 1 0 120 0 60 58.6 0 1 0-120 0Z" fill="#6D3D2D" p-id="3606"></path><path d="M287 453.1c0 18.9 15.7 34.1 35 34.1 19.4 0 35-15.3 35-34.1 0-3.6-0.6-7-1.6-10.2-9.4-12.5-23.6-21.1-39.9-23.4-16.2 3-28.5 16.9-28.5 33.6zM297 506.9c0-10.8-9-19.5-20-19.5s-20 8.7-20 19.5c0 1.2 0.1 2.4 0.4 3.6 4.2 6.1 9.7 11.5 16 15.6 1.2 0.2 2.4 0.4 3.7 0.4 11-0.1 19.9-8.9 19.9-19.6z" fill="#FFFFFF" p-id="3607"></path><path d="M657 477.5a60 58.6 0 1 0 120 0 60 58.6 0 1 0-120 0Z" fill="#6D3D2D" p-id="3608"></path><path d="M697 453.1c0 18.9 15.7 34.1 35 34.1 19.4 0 35-15.3 35-34.1 0-3.6-0.6-7-1.6-10.2-9.4-12.5-23.6-21.1-39.9-23.4-16.2 3-28.5 16.9-28.5 33.6zM707 506.9c0-10.8-9-19.5-20-19.5s-20 8.7-20 19.5c0 1.2 0.1 2.4 0.4 3.6 4.2 6.1 9.7 11.5 16 15.6 1.2 0.2 2.4 0.4 3.7 0.4 10.9-0.1 19.9-8.9 19.9-19.6z" fill="#FFFFFF" p-id="3609"></path></svg>