<?xml version="1.0" standalone="no"?><!DOCTYPE svg PUBLIC "-//W3C//DTD SVG 1.1//EN" "http://www.w3.org/Graphics/SVG/1.1/DTD/svg11.dtd"><svg t="1533717001750" class="icon" style="" viewBox="0 0 1024 1024" version="1.1" xmlns="http://www.w3.org/2000/svg" p-id="1919" xmlns:xlink="http://www.w3.org/1999/xlink" width="48" height="48"><defs><style type="text/css"></style></defs><path d="M503.808 94.208C251.904 94.208 47.104 264.192 47.104 468.992c0 102.4 51.2 191.488 128 260.096l-47.104 200.704 247.808-98.304c43.008 8.192 84.992 17.408 128 17.408 251.904 0 456.704-166.912 456.704-375.808S755.712 94.208 503.808 94.208zM503.808 801.792c-37.888 0-80.896-4.096-119.808-13.312-4.096 0-8.192 0-8.192 0-4.096 0-8.192 0-17.408 4.096l-171.008 68.608 25.6-119.808c4.096-17.408 0-29.696-13.312-43.008C128 635.904 84.992 555.008 84.992 468.992c0-183.296 187.392-332.8 417.792-332.8S921.6 285.696 921.6 468.992 734.208 801.792 503.808 801.792z" p-id="1920"></path></svg>