<?xml version="1.0" standalone="no"?><!DOCTYPE svg PUBLIC "-//W3C//DTD SVG 1.1//EN" "http://www.w3.org/Graphics/SVG/1.1/DTD/svg11.dtd"><svg t="1540710871486" class="icon" style="" viewBox="0 0 1024 1024" version="1.1" xmlns="http://www.w3.org/2000/svg" p-id="4736" xmlns:xlink="http://www.w3.org/1999/xlink" width="32" height="32"><defs><style type="text/css"></style></defs><path d="M876 722.1c37.3-61.5 58.7-133.4 58.7-210.1 0-228-189.2-412.9-422.7-412.9-178.4 0-331.1 108-393.1 260.8H180c12.3 0 22.2 9.7 22.2 21.7s-10 21.7-22.2 21.7h-75.9c-9.6 34.6-14.8 71-14.8 108.7 0 228 189.2 412.9 422.7 412.9 78.9 0 152.8-21.1 216.1-57.9H593.6c-12.3 0-22.2-9.7-22.2-21.7s10-21.7 22.2-21.7h191.9c1.2 0 2.5 0.1 3.7 0.3 20.7-17.6 39.6-37.1 56.5-58.2H712.2c-12.3 0-22.2-9.7-22.2-21.7s10-21.7 22.2-21.7H876v-0.2z" fill="#FFCB00" p-id="4737"></path><path d="M689.3 538.4a58.4 57.1 0 1 0 116.8 0 58.4 57.1 0 1 0-116.8 0Z" fill="#6D3D2D" p-id="4738"></path><path d="M300.4 367.3c-3.2 0-6.3-1.4-8.3-4.2l-21-28.7-23.9 29.1c-3.6 4.4-10 5-14.4 1.4s-5-10-1.4-14.4l32.3-39.3c2-2.4 5.1-4 8.2-3.7 3.2 0.1 6.1 1.6 8 4.2l28.8 39.3c3.3 4.6 2.4 11-2.2 14.3-1.9 1.3-4 2-6.1 2zM777.6 367.3c-3.2 0-6.3-1.4-8.3-4.2l-21-28.7-23.9 29.1c-3.6 4.4-10 5-14.4 1.4s-5-10-1.4-14.4l32.3-39.3c2-2.4 4.9-4 8.2-3.7 3.2 0.1 6.1 1.6 8 4.2l28.8 39.3c3.3 4.6 2.4 11-2.2 14.3-1.9 1.3-4 2-6.1 2z" fill="#6D3D2D" p-id="4739"></path><path d="M225.7 538.4a58.4 57.1 0 1 0 116.8 0 58.4 57.1 0 1 0-116.8 0Z" fill="#6D3D2D" p-id="4740"></path><path d="M331.1 504.8c-9.2-12.3-23.3-20.7-39.5-22.7-15.4 3.2-27 16.5-27 32.6 0 18.4 15.3 33.3 34.1 33.3s34.1-14.9 34.1-33.3c0-3.5-0.7-6.8-1.7-9.9zM254.9 547.9c-10.8 0-19.5 8.5-19.5 19 0 1.2 0.1 2.4 0.4 3.5 4.1 6 9.4 11.1 15.5 15.2 1.2 0.2 2.4 0.4 3.6 0.4 10.8 0 19.5-8.5 19.5-19s-8.7-19.1-19.5-19.1zM794.7 504.8c-9.2-12.3-23.3-20.7-39.5-22.7-15.4 3.2-27 16.5-27 32.6 0 18.4 15.3 33.3 34.1 33.3s34.1-14.9 34.1-33.3c0-3.5-0.7-6.8-1.7-9.9zM718.5 547.9c-10.8 0-19.5 8.5-19.5 19 0 1.2 0.1 2.4 0.4 3.5 4.1 6 9.4 11.1 15.5 15.2 1.2 0.2 2.4 0.4 3.6 0.4 10.8 0 19.5-8.5 19.5-19s-8.8-19.1-19.5-19.1z" fill="#FFFFFF" p-id="4741"></path><path d="M347.8 488.1H212c-5.6 0-10.2-4.6-10.2-10.2s4.6-10.2 10.2-10.2h135.7c5.6 0 10.2 4.6 10.2 10.2 0.1 5.7-4.5 10.2-10.1 10.2z" fill="#6D3D2D" p-id="4742"></path><path d="M811.4 488.1H675.6c-5.6 0-10.2-4.6-10.2-10.2s4.6-10.2 10.2-10.2h135.7c5.6 0 10.2 4.6 10.2 10.2 0.1 5.7-4.5 10.2-10.1 10.2z" fill="#6D3D2D" p-id="4743"></path><path d="M446.7 602.1h-0.8c-3.7-0.3-7-2.6-8.5-5.9l-21.2-46.3c-1.5-3.2-1.2-6.9 0.7-9.8 1.9-2.9 5.1-4.7 8.6-4.7h52c3.8 0 7.2 2.1 9 5.4 1.8 3.3 1.6 7.3-0.5 10.5l-30.8 46.3c-1.8 2.8-5 4.5-8.5 4.5z" fill="#6D3D2D" p-id="4744"></path><path d="M441.5 555.8l6.9 15.2 10-15.2zM544.8 547.9l36.6-5.2-13.2 30.6z" fill="#FFFFFF" p-id="4745"></path><path d="M570.9 599.9c-3.2 0-6.3-1.5-8.2-4.1l-32.7-44c-3.4-4.5-2.4-10.9 2.1-14.3 4.5-3.4 10.9-2.4 14.3 2.1l21.1 28.4 10-29.4c1.8-5.4 7.6-8.2 13-6.4s8.2 7.6 6.4 13l-16.2 47.9c-1.2 3.6-4.3 6.2-8.1 6.8-0.6-0.1-1.2 0-1.7 0z" fill="#6D3D2D" p-id="4746"></path><path d="M491.8 551.1c-37 0-71.8-1.8-78.9-6.5-8.2-5.4-14.2-10.8-18.2-16.3-3.3-4.6-2.3-11 2.3-14.3 4.6-3.3 11-2.3 14.3 2.3 2.5 3.5 6.9 7.3 13 11.3 12.7 4.6 142.2 4 158.3-1.2 10.6-3.4 12.7-6.1 14.5-8.4 0.8-1 1.6-2 2.4-2.8 3.9-4.1 10.4-4.1 14.5-0.2 4 3.9 4.2 10.4 0.2 14.5l-0.9 1.2c-3.9 5-9 10.3-24.3 15.3-9.2 2.7-54.6 5.1-97.2 5.1z" fill="#6D3D2D" p-id="4747"></path></svg>