<?xml version="1.0" standalone="no"?><!DOCTYPE svg PUBLIC "-//W3C//DTD SVG 1.1//EN" "http://www.w3.org/Graphics/SVG/1.1/DTD/svg11.dtd"><svg t="1540710851248" class="icon" style="" viewBox="0 0 1024 1024" version="1.1" xmlns="http://www.w3.org/2000/svg" p-id="4169" xmlns:xlink="http://www.w3.org/1999/xlink" width="32" height="32"><defs><style type="text/css"></style></defs><path d="M813.3 768.8c15.1-18 28.6-37.3 40.3-57.8h-70.5c-15.7 0-28.4-12.7-28.4-28.4s12.7-28.4 28.4-28.4h97.3c16.7-44.1 25.9-92.1 25.9-142.1 0-219.8-176.6-397.9-394.4-397.9-121.3 0-229.7 55.2-302.1 142.1h156.8c15.7 0 28.4 12.7 28.4 28.4s-12.7 28.4-28.4 28.4H170.4c-33.6 58.5-52.8 126.5-52.8 199C117.6 731.9 294.2 910 512 910c91.6 0 175.8-31.5 242.8-84.3h-93.2c-15.7 0-28.4-12.7-28.4-28.4s12.7-28.4 28.4-28.4h151.7z" fill="#FFCB00" p-id="4170"></path><path d="M240.5 460.8c-2.7 0-5.3-0.8-7.7-2.4-6-4.2-7.4-12.5-3.1-18.5 19.1-26.9 42.7-39.7 70.5-38.1 7.3 0.4 12.9 6.7 12.5 14-0.4 7.3-6.7 12.9-14 12.5-18.3-1-33.7 7.8-47.3 26.9-2.6 3.7-6.7 5.6-10.9 5.6zM289.4 543.5h-1.2c-13-0.3-28.4-4.1-40.3-17.4-2.7 3.2-6.2 5-10.8 5.3-7.5 0.2-13.6-5.2-14-12.5-0.2-4.2 1.6-8.1 4.5-10.7 0.8-2.4 2.2-8.3 3.8-21.5 0.8-6.4 6.1-11.4 12.6-11.7 6.6-0.3 12.2 4.2 13.6 10.5 5.8 27.5 19.6 31.2 31.1 31.5 10.7 0.5 24.6-3.2 30.2-32 1.4-7.2 8.4-11.8 15.5-10.5 7.2 1.4 11.9 8.3 10.5 15.5-8.9 46.2-38 53.5-55.5 53.5zM784.6 460.8c-4.2 0-8.2-1.9-10.8-5.6-13.6-19.2-29.1-28-47.3-26.9-7.4 0.3-13.6-5.2-14-12.5-0.4-7.3 5.2-13.6 12.5-14 27.9-1.6 51.4 11.2 70.5 38.1 4.2 6 2.8 14.3-3.1 18.5-2.5 1.6-5.2 2.4-7.8 2.4zM735.7 543.5c-17.4 0-46.6-7.3-55.5-53.6-1.4-7.2 3.3-14.1 10.5-15.5 7.2-1.3 14.1 3.3 15.5 10.5 5.5 28.8 19.1 32.5 30.2 32 11.4-0.2 25.3-4 31.1-31.5 1.3-6.3 7.3-10.9 13.6-10.5 6.5 0.3 11.8 5.2 12.6 11.7 1.6 13.2 3 19.1 3.8 21.5 3 2.6 4.8 6.5 4.5 10.7-0.4 7.3-6.6 12.7-14 12.5-4.6-0.3-8.1-2.1-10.8-5.3-11.9 13.3-27.2 17.1-40.3 17.4-0.4 0.1-0.8 0.1-1.2 0.1z" fill="#6D3D2D" p-id="4171"></path><path d="M335.1 593.3C462.6 574 546.6 564.4 587 564.4c40.4 0 69.6 2.9 87.8 8.8C669.2 666.8 640 725 587 747.8c-79.5 34.2-145.1 12.3-188.9-27.1-29.2-26.2-50.2-68.7-63-127.4z" fill="#E96961" p-id="4172"></path><path d="M509.6 784.9c-55.6 0-95.7-26.6-118.1-46.8-30.6-27.6-52.9-72.2-66-132.7-0.6-2.7 0-5.5 1.5-7.8 1.6-2.3 4-3.8 6.7-4.2 129.3-19.5 212.1-29 253.4-29 41.8 0 71.5 3 90.9 9.3 4.3 1.4 7.1 5.5 6.9 10.1-5.8 97.2-37.4 158.9-93.8 183.2-30.1 12.9-57.3 17.9-81.5 17.9zM347.2 611.5c12.4 51 31.8 88.6 57.5 111.8 28.6 25.8 89.9 63.4 178.3 25.4 47.5-20.5 74.8-73.6 81.3-158.1-17.4-4.2-43.4-6.3-77.3-6.3-38.6 0-119.2 9.2-239.8 27.2zM594.8 331.4c-8.8 8.8-2.9 23.8 9.5 24.3l81.9 3.3c7.8 0.3 14.4-5.8 14.7-13.6 0.3-7.8-5.8-14.5-13.6-14.8l-49.5-2 62.2-62.3c8.9-9 2.6-24.3-10-24.3h-61c-7.8 0-14.2 6.4-14.2 14.2 0 7.8 6.4 14.2 14.2 14.2h26.7l-60.9 61zM767.9 264.4c-8.1 9.4-1.2 23.9 11.1 23.5l95.6-2.9c7.8-0.2 14-6.8 13.8-14.6-0.2-7.8-6.8-14-14.6-13.8l-63.2 1.9 70.9-81.7c8.3-9.6 0.9-24.4-11.7-23.5l-71 5c-7.8 0.5-13.7 7.3-13.2 15.2 0.5 7.8 7.3 13.7 15.2 13.2l36.8-2.6-69.7 80.3z" fill="#6D3D2D" p-id="4173"></path></svg>