<?xml version="1.0" standalone="no"?><!DOCTYPE svg PUBLIC "-//W3C//DTD SVG 1.1//EN" "http://www.w3.org/Graphics/SVG/1.1/DTD/svg11.dtd"><svg t="1540710856391" class="icon" style="" viewBox="0 0 1024 1024" version="1.1" xmlns="http://www.w3.org/2000/svg" p-id="4303" xmlns:xlink="http://www.w3.org/1999/xlink" width="32" height="32"><defs><style type="text/css"></style></defs><path d="M476.9 382.2H505v-35.4c-31.8-0.9-62.8-4.8-92.7-11.3l-9.3 45.1c-1 5-5.4 8.4-10.3 8.4-0.7 0-1.4-0.1-2.1-0.2-5.7-1.2-9.4-6.7-8.2-12.4l9.4-45.7c-37.2-9.7-72.6-23.6-105.3-41l-21.4 27.1c-2.1 2.6-5.2 4-8.3 4-2.3 0-4.6-0.7-6.5-2.3-4.6-3.6-5.4-10.2-1.8-14.8l19.4-24.6c-22.4-13.3-43.5-28.4-63-44.9C138.5 307.7 98 405.1 98 512c0 134.5 64.2 254 163.6 329.6 0.8-1.9 1.9-3.6 3.7-4.8l42.9-28.4-14-14.7c-4-4.2-3.9-10.9 0.4-14.9 4.2-4 10.9-3.9 14.9 0.4l16.6 17.4 98.7-65.4-2.2-28.6c-0.4-5.8 3.9-10.9 9.7-11.3 5.8-0.2 10.9 3.9 11.3 9.7l1.3 16.9L505 678V403.2h-28.1c-5.8 0-10.5-4.7-10.5-10.5s4.7-10.5 10.5-10.5zM825 241.1c-26.5 21.5-55.9 40-87.3 55.5l25.5 33.6c3.5 4.6 2.6 11.2-2 14.7-1.9 1.4-4.1 2.1-6.3 2.1-3.2 0-6.3-1.4-8.4-4.2l-28.3-37.2c-33.4 14.6-68.9 25.8-106.2 32.7l7.8 38c1.2 5.7-2.5 11.3-8.2 12.4-0.7 0.2-1.4 0.2-2.1 0.2-4.9 0-9.3-3.4-10.3-8.4l-8-38.8c-21.2 3-43 4.8-65.1 5.1V382h21.1c5.8 0 10.5 4.7 10.5 10.5S553 403 547.2 403H526v270.2h122.8v-14c0-5.8 4.7-10.5 10.5-10.5s10.5 4.7 10.5 10.5v14h100.4l2.6-15.7c0.9-5.7 6.3-9.7 12.1-8.7 5.7 0.9 9.6 6.3 8.7 12.1l-2 12.3h99.2c0.8 0 1.6 0.3 2.3 0.5C914.3 624.1 926 569.4 926 512c0-103.6-38.1-198.3-101-270.9z" fill="#FFCB00" p-id="4304"></path><path d="M266.3 493.6a59.6 58.8 0 1 0 119.2 0 59.6 58.8 0 1 0-119.2 0Z" fill="#6D3D2D" p-id="4305"></path><path d="M633.9 493.6a59.6 58.8 0 1 0 119.2 0 59.6 58.8 0 1 0-119.2 0Z" fill="#6D3D2D" p-id="4306"></path><path d="M693.1 272.7c-3.5-4.6-2.6-11.2 2-14.7s11.2-2.6 14.7 2l14.8 19.5c31.1-14.9 60-33 86.1-54C735.4 146.9 629.5 98 512 98c-114.2 0-217.6 46.3-292.5 121 19 16.1 39.7 30.7 61.7 43.5l21.9-27.7c3.6-4.6 10.2-5.4 14.8-1.8 4.6 3.6 5.4 10.2 1.8 14.8l-19.8 25.1c30 15.7 62.3 28.1 96.3 37.1l6.5-31.7c1.2-5.7 6.8-9.4 12.4-8.2 5.7 1.2 9.4 6.7 8.2 12.4l-6.7 32.4c32.9 7.1 67.1 11.1 102.5 11.1 23.1 0 45.7-1.7 67.8-4.8l-8-38.7c-1.2-5.7 2.5-11.3 8.2-12.4 5.7-1.2 11.3 2.5 12.4 8.2l8.1 39.5c34.1-6.3 66.6-16.4 97.3-29.4l-11.8-15.7z" fill="#D8D8D8" p-id="4307"></path><path d="M306.1 469.1c0 18.9 15.6 34.3 34.7 34.3s34.7-15.3 34.7-34.3c0-3.6-0.7-6.9-1.7-10.1-9.4-12.6-23.7-21.3-40.2-23.4-15.7 3.3-27.5 17-27.5 33.5zM316 523c0-10.8-8.9-19.6-19.9-19.6-11 0-19.9 8.8-19.9 19.6 0 1.2 0.1 2.4 0.4 3.6 4.2 6.1 9.6 11.4 15.8 15.6 1.2 0.2 2.4 0.4 3.7 0.4 11 0 19.9-8.8 19.9-19.6zM708.4 493.6c18.6 0 33.7-14.5 34.6-32.7a59.858 59.858 0 0 0-49.5-26.1c-3.5 0-7 0.4-10.3 1-5.9 6.1-9.5 14.4-9.5 23.5 0 18.9 15.5 34.3 34.7 34.3zM683.6 523c0-10.8-8.9-19.6-19.9-19.6-11 0-19.9 8.8-19.9 19.6 0 1.2 0.1 2.4 0.4 3.6 4.2 6.1 9.6 11.4 15.8 15.6 1.2 0.2 2.4 0.4 3.7 0.4 11 0 19.9-8.8 19.9-19.6z" fill="#FFFFFF" p-id="4308"></path><path d="M365.9 445.3h-71.5c-5.8 0-10.5-4.7-10.5-10.5s4.7-10.5 10.5-10.5h71.5c5.8 0 10.5 4.7 10.5 10.5s-4.6 10.5-10.5 10.5zM732.9 445.3h-71.5c-5.8 0-10.5-4.7-10.5-10.5s4.7-10.5 10.5-10.5h71.5c5.8 0 10.5 4.7 10.5 10.5s-4.7 10.5-10.5 10.5zM365.9 557.6h-71.5c-5.8 0-10.5-4.7-10.5-10.5s4.7-10.5 10.5-10.5h71.5c5.8 0 10.5 4.7 10.5 10.5 0.1 5.8-4.6 10.5-10.5 10.5zM732.9 557.6h-71.5c-5.8 0-10.5-4.7-10.5-10.5s4.7-10.5 10.5-10.5h71.5c5.8 0 10.5 4.7 10.5 10.5s-4.7 10.5-10.5 10.5z" fill="#6D3D2D" p-id="4309"></path><path d="M788.2 694.5L782 732c-0.8 5.2-5.3 8.8-10.4 8.8-0.6 0-1.1 0-1.7-0.1-5.7-0.9-9.6-6.3-8.7-12.1l5.6-34.1h-96.9v14.8c0 5.8-4.7 10.5-10.5 10.5s-10.5-4.7-10.5-10.5v-14.8H537.4l43 57.5 19-19.7c4-4.2 10.7-4.3 14.9-0.3 4.2 4 4.3 10.7 0.3 14.9L593.1 769l40.5 54.2 13.6-15.1c3.9-4.3 10.6-4.7 14.9-0.8 4.3 3.9 4.7 10.6 0.8 14.9l-16.4 18.2 31.2 41.6c1.9 2.6 2.4 5.7 1.7 8.6 89-39.4 161.5-109.2 204.3-196.2h-95.5z" fill="#D8D8D8" p-id="4310"></path><path d="M632.2 856.4l-21.1 23.5c-2.1 2.3-4.9 3.5-7.8 3.5-2.5 0-5-0.9-7-2.7-4.3-3.9-4.7-10.6-0.8-14.9l23.9-26.6-41-54.8-9.6 10c-2.1 2.1-4.8 3.2-7.6 3.2-2.6 0-5.3-1-7.3-2.9-4.2-4-4.3-10.7-0.3-14.9l12-12.5-52.1-69.7-66.9 44.4 2.5 32.4c0.4 5.8-3.9 10.9-9.7 11.3h-0.8c-5.5 0-10.1-4.2-10.5-9.7l-1.6-20.6-85.7 56.8 14.5 15.3c4 4.2 3.9 10.9-0.4 14.9-2 1.9-4.7 2.9-7.3 2.9-2.8 0-5.6-1.1-7.6-3.3l-17.1-18-44.8 29.7C344.6 899.3 425.2 926 512 926c53.6 0 104.8-10.3 151.8-28.9-1.1-0.7-2.2-1.4-3-2.5l-28.6-38.2z" fill="#FFCB00" p-id="4311"></path><path d="M448.8 561.1a63.2 84.2 0 1 0 126.4 0 63.2 84.2 0 1 0-126.4 0Z" fill="#F46B62" p-id="4312"></path><path d="M512 655.9c-40.6 0-73.7-42.5-73.7-94.7s33.1-94.7 73.7-94.7 73.7 42.5 73.7 94.7-33.1 94.7-73.7 94.7z m0-168.5c-29 0-52.6 33.1-52.6 73.7s23.6 73.7 52.6 73.7 52.6-33.1 52.6-73.7-23.6-73.7-52.6-73.7z" fill="#6D3D2D" p-id="4313"></path></svg>