<?xml version="1.0" standalone="no"?><!DOCTYPE svg PUBLIC "-//W3C//DTD SVG 1.1//EN" "http://www.w3.org/Graphics/SVG/1.1/DTD/svg11.dtd"><svg t="1533732957484" class="icon" style="" viewBox="0 0 1111 1024" version="1.1" xmlns="http://www.w3.org/2000/svg" p-id="1687" xmlns:xlink="http://www.w3.org/1999/xlink" width="34.71875" height="32"><defs><style type="text/css"></style></defs><path d="M761.881835 147.039804L586.818101 0.193121l-48.956047 58.290204 175.042276 146.846683zM223.987595 58.290205L175.01009 0 0 146.857412l48.945318 58.279476z m175.954234 175.610909h-57.110024v228.525926L523.581866 571.207527l28.753496-47.0463-152.350617-90.283834z m-19.236948-152.350618c-189.515585 0-342.649414 153.509341-342.649413 342.831805s153.166015 342.810348 342.6816 342.810348 343.024926-153.509341 343.024926-342.831805S570.241924 81.518309 380.737068 81.518309z m0.193121 609.488302c-147.232924 0-266.645768-119.423572-266.645768-266.645768s119.44503-266.688683 266.677955-266.688683S647.575956 277.127919 647.575956 424.360844 528.345505 691.006611 380.930189 691.006611z m0 0" fill="" p-id="1688"></path></svg>