<?xml version="1.0" standalone="no"?><!DOCTYPE svg PUBLIC "-//W3C//DTD SVG 1.1//EN" "http://www.w3.org/Graphics/SVG/1.1/DTD/svg11.dtd"><svg t="1533208474290" class="icon" style="" viewBox="0 0 1024 1024" version="1.1" xmlns="http://www.w3.org/2000/svg" p-id="2302" xmlns:xlink="http://www.w3.org/1999/xlink" width="32" height="32"><defs><style type="text/css"></style></defs><path d="M512 1024C229.225412 1024 0 794.759529 0 512 0 229.225412 229.225412 0 512 0 794.774588 0 1024 229.225412 1024 512 1024 794.759529 794.774588 1024 512 1024ZM512 45.176471C254.177882 45.176471 45.176471 254.177882 45.176471 512 45.176471 769.807059 254.177882 978.823529 512 978.823529 769.822118 978.823529 978.823529 769.807059 978.823529 512 978.823529 254.177882 769.822118 45.176471 512 45.176471ZM527.104 722.703059 527.104 790.573176C527.104 803.056941 516.969412 813.161412 504.470588 813.161412 491.971765 813.161412 481.837176 803.056941 481.837176 790.573176L481.837176 721.603765C396.995765 711.619765 331.294118 643.674353 331.294118 561.167059L331.294118 542.117647 376.470588 542.117647 376.470588 555.008C376.470588 622.351059 433.483294 676.969412 504.079059 677.722353 504.214588 677.722353 504.335059 677.647059 504.470588 677.647059 504.696471 677.647059 504.877176 677.767529 505.088 677.767529 505.253647 677.767529 505.389176 677.782588 505.539765 677.782588L518.460235 677.782588C589.733647 677.782588 647.529412 622.817882 647.529412 555.008L647.529412 542.117647 692.705882 542.117647 692.705882 561.167059C692.705882 648.493176 619.113412 719.465412 527.104 722.703059ZM512 647.333647C453.903059 647.333647 406.799059 596.916706 406.799059 534.723765L406.799059 353.551059C406.799059 291.358118 453.903059 240.926118 512 240.926118 570.096941 240.926118 617.200941 291.358118 617.200941 353.551059L617.200941 534.723765C617.200941 596.916706 570.096941 647.333647 512 647.333647ZM572.114824 373.699765C572.114824 325.330824 545.204706 286.117647 512 286.117647 478.795294 286.117647 451.885176 325.330824 451.885176 373.699765L451.885176 514.605176C451.885176 562.989176 478.795294 602.202353 512 602.202353 545.204706 602.202353 572.114824 562.989176 572.114824 514.605176L572.114824 373.699765Z" p-id="2303" fill="#ffffff"></path></svg>